<svg xmlns="http://www.w3.org/2000/svg" version="1.0" width="185.000000pt" height="202.000000pt" viewBox="0 0 185.000000 202.000000" preserveAspectRatio="xMidYMid meet">
<metadata fill="#338046">
Created by potrace 1.10, written by Peter Selinger 2001-2011
</metadata>
<g transform="translate(0.000000,202.000000) scale(0.100000,-0.100000)" fill="#338046" stroke="none">
<path d="M940 1840 c0 -6 7 -13 15 -17 24 -9 55 -77 55 -120 0 -47 -25 -89 -75 -128 -21 -17 -64 -57 -97 -90 l-59 -60 5 -70 c3 -39 8 -78 12 -88 10 -28 24 -19 24 16 0 17 8 44 18 58 9 14 37 56 61 94 36 53 46 64 51 49 5 -15 14 -9 48 35 23 29 39 57 36 63 -4 6 -10 5 -15 -3 -17 -27 -9 8 16 67 22 53 24 56 25 27 0 -17 -5 -44 -10 -59 -7 -18 -7 -30 0 -39 11 -13 -40 -102 -65 -111 -8 -4 -15 -10 -15 -16 0 -5 5 -6 10 -3 6 3 10 2 10 -3 0 -5 -17 -17 -37 -26 -43 -20 -92 -82 -103 -132 -9 -41 -2 -43 31 -8 13 14 40 34 60 44 98 51 134 108 149 237 17 151 14 177 -21 218 -42 48 -129 92 -129 65z m40 -300 c0 -5 -4 -9 -9 -7 -12 3 -104 -73 -97 -80 5 -5 1 -11 -38 -56 -31 -35 -43 -19 -21 27 23 47 63 89 79 83 8 -3 24 5 37 19 23 24 49 32 49 14z" fill="#338046"/>
<path d="M1140 1763 c0 -5 7 -30 15 -57 21 -68 19 -99 -11 -212 -38 -144 -38 -144 -21 -144 20 0 75 63 83 95 3 14 5 71 2 128 -3 90 -7 108 -31 150 -26 45 -37 56 -37 40z" fill="#338046"/>
<path d="M806 1639 c-95 -67 -116 -87 -137 -135 -15 -33 -16 -46 -7 -77 21 -70 106 -146 94 -84 -11 54 -16 138 -7 133 5 -3 14 8 21 24 7 16 19 35 28 42 13 11 15 10 9 -9 -4 -13 -10 -33 -13 -45 -6 -22 -6 -22 7 -3 50 73 76 126 84 168 4 20 3 37 -1 36 -5 0 -40 -23 -78 -50z m-14 -79 c-39 -37 -73 -46 -56 -17 4 7 4 9 -1 5 -8 -8 -13 -39 -17 -105 -2 -27 -5 -30 -20 -22 -35 19 1 118 53 144 16 9 29 13 29 10 0 -4 7 1 16 9 8 9 21 16 27 16 7 0 -7 -18 -31 -40z" fill="#338046"/>
<path d="M1325 1328 c-37 -13 -95 -55 -95 -69 0 -9 89 -5 148 7 14 3 22 0 22 -10 0 -7 12 -17 28 -21 29 -7 96 -54 89 -62 -3 -2 -28 7 -56 21 -59 30 -62 31 -55 11 4 -8 14 -15 24 -15 11 0 22 -4 25 -10 7 -11 174 -64 181 -57 6 6 -65 96 -118 148 -63 62 -126 80 -193 57z" fill="#338046"/>
<path d="M307 1299 c-41 -10 -121 -48 -115 -55 2 -2 37 3 77 11 79 17 115 13 278 -26 46 -11 88 -17 94 -14 13 9 -24 51 -61 70 -32 16 -223 26 -273 14z" fill="#338046"/>
<path d="M1163 1213 c-25 -10 -12 -23 22 -23 24 0 70 -18 140 -56 102 -54 127 -72 85 -61 -32 8 -23 -5 27 -42 27 -20 42 -36 34 -39 -7 -2 -32 10 -56 27 -31 22 -45 27 -49 19 -5 -10 -7 -10 -12 -1 -25 53 -67 93 -119 112 -31 12 -62 21 -70 21 -22 0 -18 -18 5 -25 10 -3 41 -37 69 -74 67 -93 101 -112 215 -122 50 -5 100 -11 111 -13 38 -9 144 12 172 34 31 24 73 87 73 109 0 10 -9 7 -27 -10 -37 -33 -76 -49 -121 -49 -73 0 -109 18 -179 90 -37 39 -71 70 -76 70 -5 0 -20 9 -34 20 -21 17 -40 20 -112 19 -47 0 -92 -3 -98 -6z m217 -40 c34 -18 46 -29 37 -35 -8 -5 -7 -8 5 -8 10 0 24 -13 33 -29 20 -40 95 -99 134 -107 22 -5 28 -9 20 -15 -7 -4 -16 -6 -19 -4 -4 2 -23 5 -43 7 -21 1 -37 6 -37 12 0 5 -3 7 -6 3 -13 -12 -49 44 -45 69 1 7 -5 14 -14 18 -8 3 -15 12 -15 19 0 8 -27 27 -60 43 -58 27 -85 54 -55 54 9 0 38 -12 65 -27z" fill="#338046"/>
<path d="M183 1181 c-37 -23 -83 -87 -83 -115 0 -18 3 -17 28 7 51 49 137 60 208 28 22 -10 60 -41 85 -69 24 -28 69 -67 98 -87 54 -35 57 -36 130 -31 77 5 111 12 111 25 0 4 -18 8 -40 9 -22 1 -57 11 -78 23 -159 89 -176 100 -147 94 l30 -5 -35 30 c-19 17 -48 40 -65 51 -16 10 -23 19 -15 19 18 0 76 -34 109 -64 l24 -21 -7 28 c-9 40 -1 33 31 -24 23 -42 38 -55 89 -80 34 -16 72 -29 85 -29 23 0 22 2 -12 33 -20 17 -53 56 -75 85 -56 77 -89 89 -259 96 -77 3 -149 8 -160 11 -11 3 -34 -3 -52 -14z m252 -70 c17 -13 21 -21 13 -29 -13 -13 14 -45 28 -34 5 4 6 3 2 -2 -9 -11 7 -26 62 -55 53 -29 70 -41 70 -51 0 -13 -44 -4 -75 15 -33 21 -85 72 -79 77 2 2 -9 18 -24 34 -54 60 -56 64 -37 64 9 0 27 -8 40 -19z" fill="#338046"/>
<path d="M940 1151 c0 -5 -3 -17 -7 -27 -4 -12 -3 -15 5 -10 8 4 16 -3 22 -21 21 -57 43 -89 62 -90 17 -2 18 1 7 15 -7 9 -22 25 -34 35 -11 10 -14 16 -7 12 16 -8 16 -6 -8 49 -19 41 -40 61 -40 37z" fill="#338046"/>
<path d="M896 1050 c-14 -28 -20 -53 -15 -56 5 -3 14 8 20 25 6 17 14 31 17 31 4 0 7 11 7 25 0 14 -1 25 -2 25 -2 0 -14 -22 -27 -50z" fill="#338046"/>
<path d="M312 954 c81 -104 148 -154 209 -154 43 0 135 44 150 72 10 18 8 19 -18 15 -15 -3 -64 -8 -108 -11 -62 -5 -74 -3 -55 5 25 10 25 11 -14 24 -44 15 -81 45 -56 45 8 -1 26 -7 40 -15 35 -20 57 -20 40 0 -7 8 -19 15 -27 15 -8 0 -33 11 -56 24 -23 13 -66 27 -96 31 l-54 7 45 -58z" fill="#338046"/>
<path d="M1262 914 c2 -9 22 -30 45 -47 42 -30 44 -30 170 -31 120 -1 132 1 187 27 61 28 71 48 15 28 -56 -19 -191 -13 -301 14 -119 30 -120 30 -116 9z" fill="#338046"/>
<path d="M1090 872 c0 -36 -22 -85 -51 -118 -11 -11 -35 -50 -55 -85 -28 -50 -34 -57 -29 -31 4 17 3 32 0 32 -4 0 -25 -20 -47 -45 -22 -25 -44 -45 -50 -45 -12 0 28 58 61 88 l26 23 -32 -6 c-18 -4 -33 -5 -33 -2 0 2 29 18 64 35 56 27 66 37 90 83 38 77 35 116 -5 65 -11 -14 -43 -38 -72 -55 -64 -37 -111 -84 -132 -133 -9 -23 -18 -86 -22 -158 l-6 -120 44 -43 c43 -40 114 -76 127 -63 3 4 -5 14 -17 23 -28 19 -51 71 -51 112 0 61 29 109 94 156 34 24 76 62 95 85 32 41 33 43 29 125 -2 49 -8 89 -15 97 -10 9 -13 5 -13 -20z m-7 -179 c-10 -19 -30 -41 -45 -49 -26 -14 -28 -13 -28 6 0 11 5 20 10 20 6 0 10 5 10 11 0 5 15 28 33 51 29 37 32 39 35 18 2 -13 -5 -38 -15 -57z m-140 -89 c8 -8 -18 -34 -35 -34 -11 0 -11 -2 0 -9 11 -7 11 -9 -2 -14 -14 -6 -42 -81 -37 -101 1 -4 -3 -14 -9 -20 -5 -7 -6 -17 -2 -21 4 -5 2 -5 -5 -2 -7 5 -9 28 -6 69 6 80 22 114 51 111 12 -2 21 1 21 5 -4 21 10 30 24 16z" fill="#338046"/>
<path d="M1154 783 c10 -70 16 -148 10 -135 -9 19 -21 14 -27 -10 -9 -33 -66 -108 -83 -108 -15 0 -50 -68 -40 -77 3 -3 43 20 89 50 154 100 185 184 100 278 -44 49 -56 49 -49 2z m62 -122 c0 -16 -4 -27 -8 -25 -5 3 -8 0 -8 -5 0 -6 -4 -11 -9 -11 -15 0 9 65 25 70 1 0 1 -13 0 -29z" fill="#338046"/>
<path d="M748 763 c-46 -49 -58 -87 -59 -178 -2 -77 1 -92 30 -150 18 -36 36 -65 42 -65 11 0 12 -4 -6 54 -21 69 -19 118 11 227 38 141 38 139 22 139 -8 0 -26 -12 -40 -27z" fill="#338046"/>
<path d="M1097 652 c-9 -10 -17 -22 -17 -26 0 -4 -9 -19 -20 -33 -21 -27 -25 -43 -12 -43 11 0 74 99 70 111 -2 6 -11 2 -21 -9z" fill="#338046"/>
</g>
</svg>